Coordinates
nRows=128
nColumns=2
inDegrees=yes
endheader
time	ankle_angle_r	
2.6875	  9.371581	
2.75	  9.400877	
2.8125	  9.376186	
2.875	  9.349296	
2.9375	  9.351820	
3	  9.372211	
3.0625	  9.391236	
3.125	  9.386668	
3.1875	  9.387076	
3.25	  9.390060	
3.3125	  9.358732	
3.375	  9.345115	
3.4375	  9.372650	
3.5	  9.388791	
3.5625	  9.391299	
3.625	  9.396119	
3.6875	  9.412072	
3.75	  9.440700	
3.8125	  9.456263	
3.875	  9.452243	
3.9375	  9.436990	
4	  9.446344	
4.0625	  9.491999	
4.125	  9.502297	
4.1875	  9.480888	
4.25	  9.469348	
4.3125	  9.423388	
4.375	  9.362946	
4.4375	  9.347211	
4.5	  9.358918	
4.5625	  9.370581	
4.625	  9.377865	
4.6875	  9.390594	
4.75	  9.388036	
4.8125	  9.360383	
4.875	  9.347715	
4.9375	  9.339966	
5	  9.338130	
5.0625	  9.365584	
5.125	  9.384512	
5.1875	  9.392879	
5.25	  9.387691	
5.3125	  9.345439	
5.375	  9.333622	
5.4375	  9.376539	
5.5	  9.414959	
5.5625	  9.442799	
5.625	  9.468327	
5.6875	  9.500034	
5.75	  9.512181	
5.8125	  9.441133	
5.875	  9.355235	
5.9375	  9.342430	
6	  9.365899	
6.0625	  9.382409	
6.125	  9.383939	
6.1875	  9.387084	
6.25	  9.383587	
6.3125	  9.358761	
6.375	  9.346594	
6.4375	  9.350055	
6.5	  9.361229	
6.5625	  9.382936	
6.625	  9.390048	
6.6875	  9.388963	
6.75	  9.388191	
6.8125	  9.376359	
6.875	  9.371420	
6.9375	  9.384082	
7	  9.426056	
7.0625	  9.479908	
7.125	  9.487953	
7.1875	  9.465267	
7.25	  9.448564	
7.3125	  9.441415	
7.375	  9.431958	
7.4375	  9.387006	
7.5	  9.356486	
7.5625	  9.381894	
7.625	  9.402648	
7.6875	  9.410442	
7.75	  9.400896	
7.8125	  9.361802	
7.875	  9.341655	
7.9375	  9.346913	
8	  9.365345	
8.0625	  9.381559	
8.125	  9.383269	
8.1875	  9.395668	
8.25	  9.387502	
8.3125	  9.370325	
8.375	  9.393870	
8.4375	  9.391818	
8.5	  9.379585	
8.5625	  9.432181	
8.625	  9.483677	
8.6875	  9.477130	
8.75	  9.425014	
8.8125	  9.382307	
8.875	  9.385322	
8.9375	  9.372860	
9	  9.359887	
9.0625	  9.392029	
9.125	  9.413236	
9.1875	  9.404727	
9.25	  9.379114	
9.3125	  9.355113	
9.375	  9.356142	
9.4375	  9.354685	
9.5	  9.359715	
9.5625	  9.388093	
9.625	  9.405254	
9.6875	  9.398016	
9.75	  9.368366	
9.8125	  9.349972	
9.875	  9.371203	
9.9375	  9.395423	
10	  9.400723	
10.0625	  9.390002	
10.125	  9.383164	
10.1875	  9.392542	
10.25	  9.377331	
10.3125	  9.351436	
10.375	  9.359601	
10.4375	  9.369612	
10.5	  9.372493	
10.5625	  9.386073	
10.625	  9.389107	
